<?xml version="1.0" encoding="UTF-8" standalone="no"?>
<!DOCTYPE svg PUBLIC "-//W3C//DTD SVG 1.1//EN"
 "http://www.w3.org/Graphics/SVG/1.1/DTD/svg11.dtd">
<!-- Generated by graphviz version 2.26.3 (20100126.1600)
 -->
<!-- Title: G Pages: 1 -->
<svg width="1210pt" height="962pt"
 viewBox="0.00 0.00 1210.00 962.00" xmlns="http://www.w3.org/2000/svg" xmlns:xlink="http://www.w3.org/1999/xlink">
<g id="graph1" class="graph" transform="scale(1 1) rotate(0) translate(4 958)">
<title>G</title>
<polygon fill="white" stroke="white" points="-4,5 -4,-958 1207,-958 1207,5 -4,5"/>
<g id="graph2" class="cluster"><title>cluster_global</title>
<polyline fill="none" stroke="gray" points="20,-8 1182,-8 "/>
<path fill="none" stroke="gray" d="M1182,-8C1188,-8 1194,-14 1194,-20"/>
<polyline fill="none" stroke="gray" points="1194,-20 1194,-934 "/>
<path fill="none" stroke="gray" d="M1194,-934C1194,-940 1188,-946 1182,-946"/>
<polyline fill="none" stroke="gray" points="1182,-946 20,-946 "/>
<path fill="none" stroke="gray" d="M20,-946C14,-946 8,-940 8,-934"/>
<polyline fill="none" stroke="gray" points="8,-934 8,-20 "/>
<path fill="none" stroke="gray" d="M8,-20C8,-14 14,-8 20,-8"/>
<text text-anchor="middle" x="601" y="-932.1" font-family="Times Roman,serif" font-size="11.00" fill="gray">global</text>
</g>
<!-- \\Lang -->
<g id="node2" class="node"><title>\\Lang</title>
<a xlink:href="Lang.class.html" xlink:title="Lang" target="_parent">
<polygon fill="none" stroke="black" points="1157,-895 1103,-895 1103,-859 1157,-859 1157,-895"/>
<text text-anchor="middle" x="1130" y="-874.1" font-family="Courier,monospace" font-size="11.00">Lang</text>
</a>
</g>
<!-- \\User -->
<g id="node3" class="node"><title>\\User</title>
<a xlink:href="User.class.html" xlink:title="«abstract»&lt;br/&gt;User" target="_parent">
<polygon fill="none" stroke="black" points="1172,-821 1088,-821 1088,-785 1172,-785 1172,-821"/>
<text text-anchor="start" x="1096" y="-808.433" font-family="Courier,monospace" font-size="11.00">«abstract»</text>
<text text-anchor="start" x="1116" y="-795.233" font-family="Courier,monospace" font-size="11.00">User</text>
</a>
</g>
<!-- \\Db -->
<g id="node4" class="node"><title>\\Db</title>
<a xlink:href="Db.class.html" xlink:title="«abstract»&lt;br/&gt;Db" target="_parent">
<polygon fill="none" stroke="black" points="1172,-727 1088,-727 1088,-691 1172,-691 1172,-727"/>
<text text-anchor="start" x="1096" y="-714.433" font-family="Courier,monospace" font-size="11.00">«abstract»</text>
<text text-anchor="start" x="1123" y="-701.233" font-family="Courier,monospace" font-size="11.00">Db</text>
</a>
</g>
<!-- \\Page_manageAssessments -->
<g id="node5" class="node"><title>\\Page_manageAssessments</title>
<a xlink:href="pages.Page_manageAssessments.class.html" xlink:title="Page_manageAssessments" target="_parent">
<polygon fill="none" stroke="black" points="988,-700 824,-700 824,-664 988,-664 988,-700"/>
<text text-anchor="middle" x="906" y="-679.1" font-family="Courier,monospace" font-size="11.00">Page_manageAssessments</text>
</a>
</g>
<!-- \\Page_selectLecturerGroup -->
<g id="node12" class="node"><title>\\Page_selectLecturerGroup</title>
<a xlink:href="pages.abstract.Page_selectLecturerGroup.class.html" xlink:title="«abstract»&lt;br/&gt;Page_selectLecturerGroup" target="_parent">
<polygon fill="none" stroke="black" points="738,-538 558,-538 558,-502 738,-502 738,-538"/>
<text text-anchor="start" x="614" y="-525.433" font-family="Courier,monospace" font-size="11.00">«abstract»</text>
<text text-anchor="start" x="566.5" y="-512.233" font-family="Courier,monospace" font-size="11.00">Page_selectLecturerGroup</text>
</a>
</g>
<!-- \\Page_manageAssessments&#45;&gt;\\Page_selectLecturerGroup -->
<g id="edge3" class="edge"><title>\\Page_manageAssessments&#45;&gt;\\Page_selectLecturerGroup</title>
<path fill="none" stroke="black" d="M830.142,-663.946C823.178,-661.317 816.358,-658.346 810,-655 754.747,-625.921 701.214,-575.671 671.632,-545.364"/>
<polygon fill="none" stroke="black" points="674.101,-542.883 664.64,-538.114 669.062,-547.742 674.101,-542.883"/>
</g>
<!-- \\Page_manageClasses -->
<g id="node6" class="node"><title>\\Page_manageClasses</title>
<a xlink:href="pages.Page_manageClasses.class.html" xlink:title="Page_manageClasses" target="_parent">
<polygon fill="none" stroke="black" points="975,-322 837,-322 837,-286 975,-286 975,-322"/>
<text text-anchor="middle" x="906" y="-301.1" font-family="Courier,monospace" font-size="11.00">Page_manageClasses</text>
</a>
</g>
<!-- \\Page_selectDepartment -->
<g id="node10" class="node"><title>\\Page_selectDepartment</title>
<a xlink:href="pages.abstract.Page_selectDepartment.class.html" xlink:title="«abstract»&lt;br/&gt;Page_selectDepartment" target="_parent">
<polygon fill="none" stroke="black" points="727,-241 569,-241 569,-205 727,-205 727,-241"/>
<text text-anchor="start" x="614" y="-228.433" font-family="Courier,monospace" font-size="11.00">«abstract»</text>
<text text-anchor="start" x="577" y="-215.233" font-family="Courier,monospace" font-size="11.00">Page_selectDepartment</text>
</a>
</g>
<!-- \\Page_manageClasses&#45;&gt;\\Page_selectDepartment -->
<g id="edge5" class="edge"><title>\\Page_manageClasses&#45;&gt;\\Page_selectDepartment</title>
<path fill="none" stroke="black" d="M840.294,-285.969C830.128,-283.049 819.765,-279.999 810,-277 776.628,-266.751 739.68,-254.506 709.508,-244.268"/>
<polygon fill="none" stroke="black" points="710.557,-240.928 699.962,-241.02 708.302,-247.555 710.557,-240.928"/>
</g>
<!-- \\Page_viewExcuses -->
<g id="node7" class="node"><title>\\Page_viewExcuses</title>
<a xlink:href="pages.Page_viewExcuses.class.html" xlink:title="Page_viewExcuses" target="_parent">
<polygon fill="none" stroke="black" points="455,-916 331,-916 331,-880 455,-880 455,-916"/>
<text text-anchor="middle" x="393" y="-895.1" font-family="Courier,monospace" font-size="11.00">Page_viewExcuses</text>
</a>
</g>
<!-- \\Page -->
<g id="node36" class="node"><title>\\Page</title>
<a xlink:href="Page.class.html" xlink:title="«abstract»&lt;br/&gt;Page" target="_parent">
<polygon fill="none" stroke="black" points="227,-700 143,-700 143,-664 227,-664 227,-700"/>
<text text-anchor="start" x="151" y="-687.433" font-family="Courier,monospace" font-size="11.00">«abstract»</text>
<text text-anchor="start" x="171" y="-674.233" font-family="Courier,monospace" font-size="11.00">Page</text>
</a>
</g>
<!-- \\Page_viewExcuses&#45;&gt;\\Page -->
<g id="edge7" class="edge"><title>\\Page_viewExcuses&#45;&gt;\\Page</title>
<path fill="none" stroke="black" d="M330.402,-886.777C319.577,-882.96 308.944,-877.847 300,-871 244.494,-828.509 209.787,-750.912 194.359,-709.599"/>
<polygon fill="none" stroke="black" points="197.636,-708.367 190.935,-700.16 191.055,-710.754 197.636,-708.367"/>
</g>
<!-- \\Page_manageGroups -->
<g id="node8" class="node"><title>\\Page_manageGroups</title>
<a xlink:href="pages.Page_manageGroups.class.html" xlink:title="Page_manageGroups" target="_parent">
<polygon fill="none" stroke="black" points="971,-646 841,-646 841,-610 971,-610 971,-646"/>
<text text-anchor="middle" x="906" y="-625.1" font-family="Courier,monospace" font-size="11.00">Page_manageGroups</text>
</a>
</g>
<!-- \\Page_manageGroups&#45;&gt;\\Page_selectLecturerGroup -->
<g id="edge9" class="edge"><title>\\Page_manageGroups&#45;&gt;\\Page_selectLecturerGroup</title>
<path fill="none" stroke="black" d="M840.387,-611.342C830.11,-608.219 819.689,-604.746 810,-601 767.423,-584.539 721.04,-560.7 688.859,-543.144"/>
<polygon fill="none" stroke="black" points="690.211,-539.893 679.762,-538.142 686.838,-546.027 690.211,-539.893"/>
</g>
<!-- \\Page_makeExcuse -->
<g id="node9" class="node"><title>\\Page_makeExcuse</title>
<a xlink:href="pages.Page_makeExcuse.class.html" xlink:title="Page_makeExcuse" target="_parent">
<polygon fill="none" stroke="black" points="965,-916 847,-916 847,-880 965,-880 965,-916"/>
<text text-anchor="middle" x="906" y="-895.1" font-family="Courier,monospace" font-size="11.00">Page_makeExcuse</text>
</a>
</g>
<!-- \\Page_selectStudentGroup -->
<g id="node14" class="node"><title>\\Page_selectStudentGroup</title>
<a xlink:href="pages.abstract.Page_selectStudentGroup.class.html" xlink:title="«abstract»&lt;br/&gt;Page_selectStudentGroup" target="_parent">
<polygon fill="none" stroke="black" points="734,-808 562,-808 562,-772 734,-772 734,-808"/>
<text text-anchor="start" x="614" y="-795.433" font-family="Courier,monospace" font-size="11.00">«abstract»</text>
<text text-anchor="start" x="570" y="-782.233" font-family="Courier,monospace" font-size="11.00">Page_selectStudentGroup</text>
</a>
</g>
<!-- \\Page_makeExcuse&#45;&gt;\\Page_selectStudentGroup -->
<g id="edge11" class="edge"><title>\\Page_makeExcuse&#45;&gt;\\Page_selectStudentGroup</title>
<path fill="none" stroke="black" d="M846.784,-883.247C834.484,-879.654 821.708,-875.526 810,-871 767.423,-854.539 721.04,-830.7 688.859,-813.144"/>
<polygon fill="none" stroke="black" points="690.211,-809.893 679.762,-808.142 686.838,-816.027 690.211,-809.893"/>
</g>
<!-- \\Page_selectDepartment&#45;&gt;\\Page -->
<g id="edge13" class="edge"><title>\\Page_selectDepartment&#45;&gt;\\Page</title>
<path fill="none" stroke="black" d="M617.545,-241.204C553.092,-280.809 400.577,-380.337 300,-493 254.253,-544.244 216.298,-616.131 197.575,-654.809"/>
<polygon fill="none" stroke="black" points="194.388,-653.361 193.237,-663.894 200.705,-656.378 194.388,-653.361"/>
</g>
<!-- \\Page_twitterAuth -->
<g id="node11" class="node"><title>\\Page_twitterAuth</title>
<a xlink:href="pages.abstract.Page_twitterAuth.class.html" xlink:title="«abstract»&lt;br/&gt;Page_twitterAuth" target="_parent">
<polygon fill="none" stroke="black" points="969,-592 843,-592 843,-556 969,-556 969,-592"/>
<text text-anchor="start" x="872" y="-579.433" font-family="Courier,monospace" font-size="11.00">«abstract»</text>
<text text-anchor="start" x="851.5" y="-566.233" font-family="Courier,monospace" font-size="11.00">Page_twitterAuth</text>
</a>
</g>
<!-- \\Page_twitterAuth&#45;&gt;\\Page_selectLecturerGroup -->
<g id="edge15" class="edge"><title>\\Page_twitterAuth&#45;&gt;\\Page_selectLecturerGroup</title>
<path fill="none" stroke="black" d="M842.886,-560.79C813.278,-554.593 777.341,-547.071 744.43,-540.183"/>
<polygon fill="none" stroke="black" points="744.829,-536.691 734.324,-538.068 743.394,-543.542 744.829,-536.691"/>
</g>
<!-- \\Page_selectGroup -->
<g id="node15" class="node"><title>\\Page_selectGroup</title>
<a xlink:href="pages.abstract.Page_selectGroup.class.html" xlink:title="«abstract»&lt;br/&gt;Page_selectGroup" target="_parent">
<polygon fill="none" stroke="black" points="456,-538 330,-538 330,-502 456,-502 456,-538"/>
<text text-anchor="start" x="359" y="-525.433" font-family="Courier,monospace" font-size="11.00">«abstract»</text>
<text text-anchor="start" x="338.5" y="-512.233" font-family="Courier,monospace" font-size="11.00">Page_selectGroup</text>
</a>
</g>
<!-- \\Page_selectLecturerGroup&#45;&gt;\\Page_selectGroup -->
<g id="edge17" class="edge"><title>\\Page_selectLecturerGroup&#45;&gt;\\Page_selectGroup</title>
<path fill="none" stroke="black" d="M557.738,-520C527.879,-520 495.033,-520 466.579,-520"/>
<polygon fill="none" stroke="black" points="466.309,-516.5 456.309,-520 466.309,-523.5 466.309,-516.5"/>
</g>
<!-- \\Page_dropboxAuth -->
<g id="node13" class="node"><title>\\Page_dropboxAuth</title>
<a xlink:href="pages.abstract.Page_dropboxAuth.class.html" xlink:title="«abstract»&lt;br/&gt;Page_dropboxAuth" target="_parent">
<polygon fill="none" stroke="black" points="969,-484 843,-484 843,-448 969,-448 969,-484"/>
<text text-anchor="start" x="872" y="-471.433" font-family="Courier,monospace" font-size="11.00">«abstract»</text>
<text text-anchor="start" x="851.5" y="-458.233" font-family="Courier,monospace" font-size="11.00">Page_dropboxAuth</text>
</a>
</g>
<!-- \\Page_dropboxAuth&#45;&gt;\\Page_selectLecturerGroup -->
<g id="edge19" class="edge"><title>\\Page_dropboxAuth&#45;&gt;\\Page_selectLecturerGroup</title>
<path fill="none" stroke="black" d="M842.886,-479.21C813.278,-485.407 777.341,-492.929 744.43,-499.817"/>
<polygon fill="none" stroke="black" points="743.394,-496.458 734.324,-501.932 744.829,-503.309 743.394,-496.458"/>
</g>
<!-- \\Page_selectStudentGroup&#45;&gt;\\Page_selectGroup -->
<g id="edge21" class="edge"><title>\\Page_selectStudentGroup&#45;&gt;\\Page_selectGroup</title>
<path fill="none" stroke="black" d="M641.122,-771.898C623.02,-726.733 569.619,-608.311 486,-547 479.941,-542.557 473.164,-538.843 466.103,-535.738"/>
<polygon fill="none" stroke="black" points="466.927,-532.3 456.341,-531.871 464.349,-538.808 466.927,-532.3"/>
</g>
<!-- \\Page_selectGroup&#45;&gt;\\Page -->
<g id="edge23" class="edge"><title>\\Page_selectGroup&#45;&gt;\\Page</title>
<path fill="none" stroke="black" d="M329.78,-532.923C319.367,-536.55 309.036,-541.158 300,-547 256.651,-575.024 220.757,-624.244 201.146,-654.877"/>
<polygon fill="none" stroke="black" points="197.935,-653.411 195.593,-663.743 203.867,-657.127 197.935,-653.411"/>
</g>
<!-- \\Page_manageDepartments -->
<g id="node16" class="node"><title>\\Page_manageDepartments</title>
<a xlink:href="pages.Page_manageDepartments.class.html" xlink:title="Page_manageDepartments" target="_parent">
<polygon fill="none" stroke="black" points="988,-268 824,-268 824,-232 988,-232 988,-268"/>
<text text-anchor="middle" x="906" y="-247.1" font-family="Courier,monospace" font-size="11.00">Page_manageDepartments</text>
</a>
</g>
<!-- \\Page_manageDepartments&#45;&gt;\\Page_selectDepartment -->
<g id="edge25" class="edge"><title>\\Page_manageDepartments&#45;&gt;\\Page_selectDepartment</title>
<path fill="none" stroke="black" d="M823.303,-241.346C795.999,-238.488 765.503,-235.297 737.701,-232.387"/>
<polygon fill="none" stroke="black" points="737.901,-228.889 727.591,-231.329 737.172,-235.851 737.901,-228.889"/>
</g>
<!-- \\Page_checkAttendance -->
<g id="node17" class="node"><title>\\Page_checkAttendance</title>
<a xlink:href="pages.Page_checkAttendance.class.html" xlink:title="Page_checkAttendance" target="_parent">
<polygon fill="none" stroke="black" points="982,-862 830,-862 830,-826 982,-826 982,-862"/>
<text text-anchor="middle" x="906" y="-841.1" font-family="Courier,monospace" font-size="11.00">Page_checkAttendance</text>
</a>
</g>
<!-- \\Page_checkAttendance&#45;&gt;\\Page_selectStudentGroup -->
<g id="edge27" class="edge"><title>\\Page_checkAttendance&#45;&gt;\\Page_selectStudentGroup</title>
<path fill="none" stroke="black" d="M829.987,-828.09C803.128,-822.469 772.561,-816.071 744.247,-810.145"/>
<polygon fill="none" stroke="black" points="744.841,-806.693 734.336,-808.07 743.407,-813.545 744.841,-806.693"/>
</g>
<!-- \\Page_twitter -->
<g id="node18" class="node"><title>\\Page_twitter</title>
<a xlink:href="pages.Page_twitter.class.html" xlink:title="Page_twitter" target="_parent">
<polygon fill="none" stroke="black" points="1179,-592 1081,-592 1081,-556 1179,-556 1179,-592"/>
<text text-anchor="middle" x="1130" y="-571.1" font-family="Courier,monospace" font-size="11.00">Page_twitter</text>
</a>
</g>
<!-- \\Page_twitter&#45;&gt;\\Page_twitterAuth -->
<g id="edge29" class="edge"><title>\\Page_twitter&#45;&gt;\\Page_twitterAuth</title>
<path fill="none" stroke="black" d="M1080.84,-574C1051.08,-574 1012.57,-574 979.263,-574"/>
<polygon fill="none" stroke="black" points="979.11,-570.5 969.11,-574 979.11,-577.5 979.11,-570.5"/>
</g>
<!-- \\Page_Logout -->
<g id="node19" class="node"><title>\\Page_Logout</title>
<a xlink:href="pages.Page_logout.class.html" xlink:title="Page_Logout" target="_parent">
<polygon fill="none" stroke="black" points="438,-862 348,-862 348,-826 438,-826 438,-862"/>
<text text-anchor="middle" x="393" y="-841.1" font-family="Courier,monospace" font-size="11.00">Page_Logout</text>
</a>
</g>
<!-- \\Page_Logout&#45;&gt;\\Page -->
<g id="edge31" class="edge"><title>\\Page_Logout&#45;&gt;\\Page</title>
<path fill="none" stroke="black" d="M347.214,-836.309C331.398,-832.244 314.119,-826.128 300,-817 256.651,-788.976 220.757,-739.756 201.146,-709.123"/>
<polygon fill="none" stroke="black" points="203.867,-706.873 195.593,-700.257 197.935,-710.589 203.867,-706.873"/>
</g>
<!-- \\Page_authError -->
<g id="node20" class="node"><title>\\Page_authError</title>
<a xlink:href="pages.Page_authError.class.html" xlink:title="Page_authError" target="_parent">
<polygon fill="none" stroke="black" points="448,-808 338,-808 338,-772 448,-772 448,-808"/>
<text text-anchor="middle" x="393" y="-787.1" font-family="Courier,monospace" font-size="11.00">Page_authError</text>
</a>
</g>
<!-- \\Page_authError&#45;&gt;\\Page -->
<g id="edge33" class="edge"><title>\\Page_authError&#45;&gt;\\Page</title>
<path fill="none" stroke="black" d="M337.293,-777.085C324.73,-773.286 311.668,-768.609 300,-763 268.579,-747.895 236.439,-724.447 214.153,-706.659"/>
<polygon fill="none" stroke="black" points="216.09,-703.723 206.117,-700.148 211.683,-709.162 216.09,-703.723"/>
</g>
<!-- \\Page_Login -->
<g id="node21" class="node"><title>\\Page_Login</title>
<a xlink:href="pages.Page_login.class.html" xlink:title="Page_Login" target="_parent">
<polygon fill="none" stroke="black" points="435,-754 351,-754 351,-718 435,-718 435,-754"/>
<text text-anchor="middle" x="393" y="-733.1" font-family="Courier,monospace" font-size="11.00">Page_Login</text>
</a>
</g>
<!-- \\Page_Login&#45;&gt;\\Page -->
<g id="edge35" class="edge"><title>\\Page_Login&#45;&gt;\\Page</title>
<path fill="none" stroke="black" d="M350.908,-725.072C318.279,-716.601 272.868,-704.812 237.803,-695.708"/>
<polygon fill="none" stroke="black" points="238.302,-692.222 227.743,-693.097 236.543,-698.997 238.302,-692.222"/>
</g>
<!-- \\Page_takeAttendance -->
<g id="node22" class="node"><title>\\Page_takeAttendance</title>
<a xlink:href="pages.Page_takeAttendance.class.html" xlink:title="Page_takeAttendance" target="_parent">
<polygon fill="none" stroke="black" points="978,-538 834,-538 834,-502 978,-502 978,-538"/>
<text text-anchor="middle" x="906" y="-517.1" font-family="Courier,monospace" font-size="11.00">Page_takeAttendance</text>
</a>
</g>
<!-- \\Page_takeAttendance&#45;&gt;\\Page_selectLecturerGroup -->
<g id="edge37" class="edge"><title>\\Page_takeAttendance&#45;&gt;\\Page_selectLecturerGroup</title>
<path fill="none" stroke="black" d="M833.446,-520C807.163,-520 776.986,-520 748.716,-520"/>
<polygon fill="none" stroke="black" points="748.397,-516.5 738.397,-520 748.397,-523.5 748.397,-516.5"/>
</g>
<!-- \\Page_grantStudents -->
<g id="node23" class="node"><title>\\Page_grantStudents</title>
<a xlink:href="pages.Page_grantStudents.class.html" xlink:title="Page_grantStudents" target="_parent">
<polygon fill="none" stroke="black" points="975,-214 837,-214 837,-178 975,-178 975,-214"/>
<text text-anchor="middle" x="906" y="-193.1" font-family="Courier,monospace" font-size="11.00">Page_grantStudents</text>
</a>
</g>
<!-- \\Page_grantStudents&#45;&gt;\\Page_selectDepartment -->
<g id="edge39" class="edge"><title>\\Page_grantStudents&#45;&gt;\\Page_selectDepartment</title>
<path fill="none" stroke="black" d="M836.861,-203.236C806.425,-206.421 770.277,-210.204 737.794,-213.603"/>
<polygon fill="none" stroke="black" points="737.423,-210.123 727.841,-214.645 738.151,-217.085 737.423,-210.123"/>
</g>
<!-- \\Page_viewStudentAttendance -->
<g id="node24" class="node"><title>\\Page_viewStudentAttendance</title>
<a xlink:href="pages.Page_viewStudentAttendance.class.html" xlink:title="Page_viewStudentAttendance" target="_parent">
<polygon fill="none" stroke="black" points="1002,-376 810,-376 810,-340 1002,-340 1002,-376"/>
<text text-anchor="middle" x="906" y="-355.1" font-family="Courier,monospace" font-size="11.00">Page_viewStudentAttendance</text>
</a>
</g>
<!-- \\Page_viewStudentAttendance&#45;&gt;\\Page_selectDepartment -->
<g id="edge41" class="edge"><title>\\Page_viewStudentAttendance&#45;&gt;\\Page_selectDepartment</title>
<path fill="none" stroke="black" d="M832.536,-339.932C824.802,-337.266 817.157,-334.292 810,-331 760.667,-308.31 709.456,-271.569 678.151,-247.346"/>
<polygon fill="none" stroke="black" points="680.285,-244.572 670.251,-241.171 675.974,-250.087 680.285,-244.572"/>
</g>
<!-- \\Page_viewStudentAttendance&#45;&gt;\\Page_selectLecturerGroup -->
<g id="edge43" class="edge"><title>\\Page_viewStudentAttendance&#45;&gt;\\Page_selectLecturerGroup</title>
<path fill="none" stroke="black" d="M830.142,-376.054C823.178,-378.683 816.358,-381.654 810,-385 754.747,-414.079 701.214,-464.329 671.632,-494.636"/>
<polygon fill="none" stroke="black" points="669.062,-492.258 664.64,-501.886 674.101,-497.117 669.062,-492.258"/>
</g>
<!-- \\Page_postNotes -->
<g id="node25" class="node"><title>\\Page_postNotes</title>
<a xlink:href="pages.Page_postNotes.class.html" xlink:title="Page_postNotes" target="_parent">
<polygon fill="none" stroke="black" points="1185,-484 1075,-484 1075,-448 1185,-448 1185,-484"/>
<text text-anchor="middle" x="1130" y="-463.1" font-family="Courier,monospace" font-size="11.00">Page_postNotes</text>
</a>
</g>
<!-- \\Page_postNotes&#45;&gt;\\Page_dropboxAuth -->
<g id="edge45" class="edge"><title>\\Page_postNotes&#45;&gt;\\Page_dropboxAuth</title>
<path fill="none" stroke="black" d="M1074.34,-466C1045.7,-466 1010.42,-466 979.568,-466"/>
<polygon fill="none" stroke="black" points="979.29,-462.5 969.29,-466 979.29,-469.5 979.29,-462.5"/>
</g>
<!-- \\Page_adminCheckAttendance -->
<g id="node26" class="node"><title>\\Page_adminCheckAttendance</title>
<a xlink:href="pages.Page_adminCheckAttendance.class.html" xlink:title="Page_adminCheckAttendance" target="_parent">
<polygon fill="none" stroke="black" points="485,-700 301,-700 301,-664 485,-664 485,-700"/>
<text text-anchor="middle" x="393" y="-679.1" font-family="Courier,monospace" font-size="11.00">Page_adminCheckAttendance</text>
</a>
</g>
<!-- \\Page_adminCheckAttendance&#45;&gt;\\Page -->
<g id="edge47" class="edge"><title>\\Page_adminCheckAttendance&#45;&gt;\\Page</title>
<path fill="none" stroke="black" d="M300.254,-682C278.865,-682 256.833,-682 237.835,-682"/>
<polygon fill="none" stroke="black" points="237.616,-678.5 227.616,-682 237.616,-685.5 237.616,-678.5"/>
</g>
<!-- \\Page_notes -->
<g id="node27" class="node"><title>\\Page_notes</title>
<a xlink:href="pages.Page_notes.class.html" xlink:title="Page_notes" target="_parent">
<polygon fill="none" stroke="black" points="948,-808 864,-808 864,-772 948,-772 948,-808"/>
<text text-anchor="middle" x="906" y="-787.1" font-family="Courier,monospace" font-size="11.00">Page_notes</text>
</a>
</g>
<!-- \\Page_notes&#45;&gt;\\Page_selectStudentGroup -->
<g id="edge49" class="edge"><title>\\Page_notes&#45;&gt;\\Page_selectStudentGroup</title>
<path fill="none" stroke="black" d="M863.974,-790C831.721,-790 785.892,-790 744.742,-790"/>
<polygon fill="none" stroke="black" points="744.669,-786.5 734.669,-790 744.669,-793.5 744.669,-786.5"/>
</g>
<!-- \\Page_attendanceThreshold -->
<g id="node28" class="node"><title>\\Page_attendanceThreshold</title>
<a xlink:href="pages.Page_attendanceThreshold.class.html" xlink:title="Page_attendanceThreshold" target="_parent">
<polygon fill="none" stroke="black" points="482,-646 304,-646 304,-610 482,-610 482,-646"/>
<text text-anchor="middle" x="393" y="-625.1" font-family="Courier,monospace" font-size="11.00">Page_attendanceThreshold</text>
</a>
</g>
<!-- \\Page_attendanceThreshold&#45;&gt;\\Page -->
<g id="edge51" class="edge"><title>\\Page_attendanceThreshold&#45;&gt;\\Page</title>
<path fill="none" stroke="black" d="M323.45,-646.056C295.385,-653.342 263.546,-661.608 237.483,-668.375"/>
<polygon fill="none" stroke="black" points="236.596,-664.989 227.796,-670.889 238.355,-671.764 236.596,-664.989"/>
</g>
<!-- \\Page_manageStudents -->
<g id="node29" class="node"><title>\\Page_manageStudents</title>
<a xlink:href="pages.Page_manageStudents.class.html" xlink:title="Page_manageStudents" target="_parent">
<polygon fill="none" stroke="black" points="978,-160 834,-160 834,-124 978,-124 978,-160"/>
<text text-anchor="middle" x="906" y="-139.1" font-family="Courier,monospace" font-size="11.00">Page_manageStudents</text>
</a>
</g>
<!-- \\Page_manageStudents&#45;&gt;\\Page_selectDepartment -->
<g id="edge53" class="edge"><title>\\Page_manageStudents&#45;&gt;\\Page_selectDepartment</title>
<path fill="none" stroke="black" d="M840.294,-160.031C830.128,-162.951 819.765,-166.001 810,-169 776.628,-179.249 739.68,-191.494 709.508,-201.732"/>
<polygon fill="none" stroke="black" points="708.302,-198.445 699.962,-204.98 710.557,-205.072 708.302,-198.445"/>
</g>
<!-- \\Page_facialRec -->
<g id="node30" class="node"><title>\\Page_facialRec</title>
<a xlink:href="pages.Page_facialRec.class.html" xlink:title="Page_facialRec" target="_parent">
<polygon fill="none" stroke="black" points="961,-430 851,-430 851,-394 961,-394 961,-430"/>
<text text-anchor="middle" x="906" y="-409.1" font-family="Courier,monospace" font-size="11.00">Page_facialRec</text>
</a>
</g>
<!-- \\Page_facialRec&#45;&gt;\\Page_selectLecturerGroup -->
<g id="edge55" class="edge"><title>\\Page_facialRec&#45;&gt;\\Page_selectLecturerGroup</title>
<path fill="none" stroke="black" d="M850.332,-425.728C836.961,-429.552 822.838,-434.037 810,-439 767.423,-455.461 721.04,-479.3 688.859,-496.856"/>
<polygon fill="none" stroke="black" points="686.838,-493.973 679.762,-501.858 690.211,-500.107 686.838,-493.973"/>
</g>
<!-- \\Page_manageLecturers -->
<g id="node31" class="node"><title>\\Page_manageLecturers</title>
<a xlink:href="pages.Page_manageLecturers.class.html" xlink:title="Page_manageLecturers" target="_parent">
<polygon fill="none" stroke="black" points="982,-106 830,-106 830,-70 982,-70 982,-106"/>
<text text-anchor="middle" x="906" y="-85.1" font-family="Courier,monospace" font-size="11.00">Page_manageLecturers</text>
</a>
</g>
<!-- \\Page_manageLecturers&#45;&gt;\\Page_selectDepartment -->
<g id="edge57" class="edge"><title>\\Page_manageLecturers&#45;&gt;\\Page_selectDepartment</title>
<path fill="none" stroke="black" d="M832.536,-106.068C824.802,-108.734 817.157,-111.708 810,-115 760.667,-137.69 709.456,-174.431 678.151,-198.654"/>
<polygon fill="none" stroke="black" points="675.974,-195.913 670.251,-204.829 680.285,-201.428 675.974,-195.913"/>
</g>
<!-- \\Page_Main -->
<g id="node32" class="node"><title>\\Page_Main</title>
<a xlink:href="pages.Page_main.class.html" xlink:title="Page_Main" target="_parent">
<polygon fill="none" stroke="black" points="431,-592 355,-592 355,-556 431,-556 431,-592"/>
<text text-anchor="middle" x="393" y="-571.1" font-family="Courier,monospace" font-size="11.00">Page_Main</text>
</a>
</g>
<!-- \\Page_Main&#45;&gt;\\Page -->
<g id="edge59" class="edge"><title>\\Page_Main&#45;&gt;\\Page</title>
<path fill="none" stroke="black" d="M354.392,-582.157C337.249,-586.544 317.123,-592.769 300,-601 268.579,-616.105 236.439,-639.553 214.153,-657.341"/>
<polygon fill="none" stroke="black" points="211.683,-654.838 206.117,-663.852 216.09,-660.277 211.683,-654.838"/>
</g>
<!-- \\Page_viewResults -->
<g id="node33" class="node"><title>\\Page_viewResults</title>
<a xlink:href="pages.Page_viewResults.class.html" xlink:title="Page_viewResults" target="_parent">
<polygon fill="none" stroke="black" points="968,-754 844,-754 844,-718 968,-718 968,-754"/>
<text text-anchor="middle" x="906" y="-733.1" font-family="Courier,monospace" font-size="11.00">Page_viewResults</text>
</a>
</g>
<!-- \\Page_viewResults&#45;&gt;\\Page_selectStudentGroup -->
<g id="edge61" class="edge"><title>\\Page_viewResults&#45;&gt;\\Page_selectStudentGroup</title>
<path fill="none" stroke="black" d="M843.216,-749.141C813.478,-755.365 777.298,-762.938 744.203,-769.864"/>
<polygon fill="none" stroke="black" points="743.113,-766.517 734.042,-771.991 744.547,-773.368 743.113,-766.517"/>
</g>
<!-- \\Page_manageModules -->
<g id="node34" class="node"><title>\\Page_manageModules</title>
<a xlink:href="pages.Page_manageModules.class.html" xlink:title="Page_manageModules" target="_parent">
<polygon fill="none" stroke="black" points="975,-52 837,-52 837,-16 975,-16 975,-52"/>
<text text-anchor="middle" x="906" y="-31.1" font-family="Courier,monospace" font-size="11.00">Page_manageModules</text>
</a>
</g>
<!-- \\Page_manageModules&#45;&gt;\\Page_selectDepartment -->
<g id="edge63" class="edge"><title>\\Page_manageModules&#45;&gt;\\Page_selectDepartment</title>
<path fill="none" stroke="black" d="M836.838,-48.8074C827.5,-52.1248 818.292,-56.1442 810,-61 748.992,-96.7278 694.604,-160.942 667.054,-196.86"/>
<polygon fill="none" stroke="black" points="664.197,-194.836 660.956,-204.924 669.78,-199.058 664.197,-194.836"/>
</g>
<!-- \\Auth -->
<g id="node35" class="node"><title>\\Auth</title>
<a xlink:href="Auth.class.html" xlink:title="«abstract»&lt;br/&gt;Auth" target="_parent">
<polygon fill="none" stroke="black" points="1172,-425 1088,-425 1088,-389 1172,-389 1172,-425"/>
<text text-anchor="start" x="1096" y="-412.433" font-family="Courier,monospace" font-size="11.00">«abstract»</text>
<text text-anchor="start" x="1116" y="-399.233" font-family="Courier,monospace" font-size="11.00">Auth</text>
</a>
</g>
<!-- \\Data -->
<g id="node40" class="node"><title>\\Data</title>
<a xlink:href="Data.class.html" xlink:title="Data" target="_parent">
<polygon fill="none" stroke="black" points="70,-700 16,-700 16,-664 70,-664 70,-700"/>
<text text-anchor="middle" x="43" y="-679.1" font-family="Courier,monospace" font-size="11.00">Data</text>
</a>
</g>
<!-- \\Page&#45;&gt;\\Data -->
<g id="edge65" class="edge"><title>\\Page&#45;&gt;\\Data</title>
<path fill="none" stroke="black" d="M142.395,-682C122.682,-682 99.4713,-682 80.4395,-682"/>
<polygon fill="none" stroke="black" points="80.3449,-678.5 70.3449,-682 80.3448,-685.5 80.3449,-678.5"/>
</g>
<!-- \\TidyHtml -->
<g id="node37" class="node"><title>\\TidyHtml</title>
<a xlink:href="TidyHtml.class.html" xlink:title="«abstract»&lt;br/&gt;TidyHtml" target="_parent">
<polygon fill="none" stroke="black" points="1172,-361 1088,-361 1088,-325 1172,-325 1172,-361"/>
<text text-anchor="start" x="1096" y="-348.433" font-family="Courier,monospace" font-size="11.00">«abstract»</text>
<text text-anchor="start" x="1102.5" y="-335.233" font-family="Courier,monospace" font-size="11.00">TidyHtml</text>
</a>
</g>
<!-- \\Menu -->
<g id="node38" class="node"><title>\\Menu</title>
<a xlink:href="Menu.class.html" xlink:title="Menu" target="_parent">
<polygon fill="none" stroke="black" points="1157,-287 1103,-287 1103,-251 1157,-251 1157,-287"/>
<text text-anchor="middle" x="1130" y="-266.1" font-family="Courier,monospace" font-size="11.00">Menu</text>
</a>
</g>
<!-- \\PageSelector -->
<g id="node39" class="node"><title>\\PageSelector</title>
<a xlink:href="PageSelector.class.html" xlink:title="PageSelector" target="_parent">
<polygon fill="none" stroke="black" points="1179,-193 1081,-193 1081,-157 1179,-157 1179,-193"/>
<text text-anchor="middle" x="1130" y="-172.1" font-family="Courier,monospace" font-size="11.00">PageSelector</text>
</a>
</g>
<!-- \\PageFactory -->
<g id="node41" class="node"><title>\\PageFactory</title>
<a xlink:href="PageFactory.class.html" xlink:title="«abstract»&lt;br/&gt;PageFactory" target="_parent">
<polygon fill="none" stroke="black" points="1176,-58 1084,-58 1084,-22 1176,-22 1176,-58"/>
<text text-anchor="start" x="1096" y="-45.4333" font-family="Courier,monospace" font-size="11.00">«abstract»</text>
<text text-anchor="start" x="1092.5" y="-32.2333" font-family="Courier,monospace" font-size="11.00">PageFactory</text>
</a>
</g>
</g>
</svg>
